<svg id="Layer_2" data-name="Layer 2" xmlns="http://www.w3.org/2000/svg" xmlns:xlink="http://www.w3.org/1999/xlink" viewBox="0 0 128 128"><defs><style>.cls-1{fill:none;}.cls-2{fill:#192733;}.cls-3{fill:#eaf0f6;}.cls-4{fill:#c4c1e4;}.cls-5{fill:#3e5974;}.cls-6{fill:#fff;}.cls-7{fill:#f6f9fc;}.cls-8{fill:#213343;}.cls-9{fill:#ff5c35;}.cls-10{fill:#ffcd78;}.cls-11{fill:#7bc492;}.cls-12{opacity:0.05;}.cls-13{fill:#b6c7d6;}.cls-14{fill:#7691ad;}.cls-15{fill:#ced0f3;}.cls-16{fill:#b7ecec;}.cls-17{fill:#57d2d2;}.cls-18{fill:#5b60dd;}.cls-19{fill:#5c62d6;}.cls-20{clip-path:url(#clip-path);}.cls-21{fill:#8589e0;}.cls-22{fill:#fcead7;}.cls-23{fill:#fef4ea;}.cls-24{fill:#ffbc4b;}</style><clipPath id="clip-path"><path class="cls-1" d="M103.87,73.28a14.81,14.81,0,1,1-18.24,10.3A14.81,14.81,0,0,1,103.87,73.28Z"/></clipPath></defs><rect class="cls-2" x="8.36" y="31.8" width="107.17" height="66.85" rx="6.12"/><path class="cls-3" d="M109.42,99H14.49A6.52,6.52,0,0,1,8,92.53V37.92a6.5,6.5,0,0,1,6.51-6.51h94.93a6.51,6.51,0,0,1,6.51,6.51v54.6A6.51,6.51,0,0,1,109.42,99ZM14.49,32.18a5.75,5.75,0,0,0-5.74,5.74v54.6a5.75,5.75,0,0,0,5.74,5.74h94.93a5.74,5.74,0,0,0,5.73-5.74V37.92a5.74,5.74,0,0,0-5.73-5.74Z"/><rect class="cls-4" x="14.09" y="36.75" width="96.41" height="58.43" transform="translate(-0.07 0.07) rotate(-0.06)"/><rect class="cls-5" x="12.89" y="36.76" width="98.55" height="58.43" transform="translate(-0.07 0.07) rotate(-0.06)"/><rect class="cls-6" x="17.76" y="23.88" width="88.43" height="71.31" transform="translate(-0.06 0.06) rotate(-0.06)"/><rect class="cls-7" x="17.75" y="23.89" width="44.18" height="71.31" transform="translate(-0.08 0.06) rotate(-0.08)"/><rect class="cls-8" x="17.74" y="23.82" width="88.4" height="4.1" transform="translate(-0.03 0.06) rotate(-0.06)"/><circle class="cls-9" cx="19.78" cy="26.07" r="0.74"/><circle class="cls-10" cx="22" cy="26.07" r="0.74"/><circle class="cls-11" cx="24.27" cy="26.07" r="0.74"/><g class="cls-12"><ellipse cx="61.99" cy="105.65" rx="57.99" ry="1.68" transform="translate(-0.11 0.06) rotate(-0.06)"/></g><path class="cls-13" d="M8.68,105.07,115.19,105c2,0,4.79-3.54,4.78-6.28L4,98.81C4,101.54,6.66,105.08,8.68,105.07Z"/><path class="cls-14" d="M63.11,98.72H53.6c0,1.61.89,2.21,1.2,2.21h16c.32,0,1.2-.61,1.19-2.21H63.11Z"/><rect class="cls-15" x="24.68" y="70.24" width="17.21" height="24.95"/><rect class="cls-15" x="24.68" y="29.94" width="3.29" height="3.43"/><rect class="cls-16" x="28.72" y="29.94" width="3.29" height="3.43"/><rect class="cls-15" x="32.71" y="29.94" width="3.29" height="3.43"/><rect class="cls-16" x="45.97" y="55.77" width="17.21" height="39.42"/><rect class="cls-15" x="67.7" y="40.87" width="17.21" height="54.33"/><polygon class="cls-17" points="97.47 11.55 97.47 11.55 97.46 11.55 97.46 11.55 97.46 11.55 81.98 27.95 88.64 27.95 88.64 76.09 106.2 76.09 106.27 27.95 112.94 27.95 97.47 11.55"/><g id="user_focus" data-name="user focus"><path class="cls-18" d="M122.93,120.12h0a2.57,2.57,0,0,1-3.57-.6L106.87,102a2.3,2.3,0,0,1,.54-3.22l.4-.29A2.31,2.31,0,0,1,111,99l12.5,17.56a2.56,2.56,0,0,1-.61,3.57Z"/><path class="cls-19" d="M85.72,96.31a16.67,16.67,0,1,0,3.66-21.68,16.67,16.67,0,0,0-3.66,21.68Z"/><g class="cls-20"><rect class="cls-21" x="85.78" y="68.97" width="16.66" height="16.66" transform="translate(-5.59 147.24) rotate(-74.45)"/><rect class="cls-21" x="97.36" y="89.5" width="16.66" height="16.66" transform="translate(-16.88 173.43) rotate(-74.45)"/><path class="cls-22" d="M89.34,95.07a13,13,0,1,0,3-18.07A13,13,0,0,0,89.34,95.07Z"/></g><path class="cls-22" d="M89.34,95.07a13,13,0,1,0,3-18.07A13,13,0,0,0,89.34,95.07Z"/><circle class="cls-23" cx="99.9" cy="87.56" r="11.11"/></g><path class="cls-17" d="M110,10.66a4,4,0,0,0,3.23-3.2.06.06,0,0,1,.12,0,4,4,0,0,0,3.22,3.2.06.06,0,0,1,0,.12,4,4,0,0,0-3.22,3.2.06.06,0,0,1-.12,0,4,4,0,0,0-3.23-3.2A.06.06,0,0,1,110,10.66Z"/><path class="cls-24" d="M104.3,14.31a4,4,0,0,0,3.22-3.2c0-.07.12-.07.12,0a4,4,0,0,0,3.23,3.2.06.06,0,0,1,0,.12,4,4,0,0,0-3.23,3.2.06.06,0,0,1-.12,0,4,4,0,0,0-3.22-3.2A.06.06,0,0,1,104.3,14.31Z"/><path class="cls-16" d="M109.5,19.56a4,4,0,0,0,3.23-3.2.06.06,0,1,1,.12,0,4,4,0,0,0,3.22,3.2.06.06,0,0,1,0,.12,4,4,0,0,0-3.22,3.2.06.06,0,0,1-.12,0,4,4,0,0,0-3.23-3.2C109.43,19.66,109.43,19.56,109.5,19.56Z"/><g id="unUvFW"><path class="cls-24" d="M25.63,61.86v4a.83.83,0,0,1-.48.81.87.87,0,0,1-.95-.1L24,66.34c-1.95-1.54-3.88-3.1-5.82-4.64a.79.79,0,0,0-.46-.17H7.42a2.6,2.6,0,0,1-2.67-2.66V45.06a2.6,2.6,0,0,1,2.67-2.67H28.19a2.6,2.6,0,0,1,2.67,2.67V58.87a3,3,0,0,1-.14.88,2.57,2.57,0,0,1-2.44,1.78H25.65v.33Zm-1.74,1.88v-3a.87.87,0,0,1,.93-.93h3.29a.89.89,0,0,0,1-1V45.13a.89.89,0,0,0-1-1H7.48a.89.89,0,0,0-1,1V58.82a.88.88,0,0,0,1,1H18a1.47,1.47,0,0,1,1,.36c1.55,1.26,3.11,2.5,4.67,3.74.06,0,.13.09.24.19v-.34Z"/><path class="cls-22" d="M23.89,64.06V60.72a.87.87,0,0,1,.93-.93h3.29a.89.89,0,0,0,1-1V45.13a.89.89,0,0,0-1-1H7.48a.89.89,0,0,0-1,1V58.82a.88.88,0,0,0,1,1H18a1.47,1.47,0,0,1,1,.36c1.55,1.26,3.11,2.5,4.67,3.74.06,0,.13.09.24.19Z"/><path class="cls-23" d="M7.48,44.12H17.73V59.78H7.46a.88.88,0,0,1-1-1V45.1a.88.88,0,0,1,1-1Z"/></g></svg>