<svg id="Layer_2" data-name="Layer 2" xmlns="http://www.w3.org/2000/svg" viewBox="0 0 128 128"><defs><style>.cls-1,.cls-7{fill:#ffcd78;}.cls-1,.cls-12,.cls-3,.cls-4,.cls-8{fill-rule:evenodd;}.cls-2,.cls-4{fill:#ffebc9;}.cls-3{fill:#ffbc4b;}.cls-5{fill:#fcead7;}.cls-6{fill:#fef4ea;}.cls-8{fill:#d49134;}.cls-12,.cls-9{fill:#ffa766;}.cls-10{fill:#ffdbc1;}.cls-11{fill:#cc6d29;}.cls-13{fill:#ff5c35;}.cls-14{fill:#d44325;}</style></defs><path class="cls-1" d="M42.74,78.46v10c0,3.5,11.83,6.33,26.42,6.33S95.58,92,95.58,88.46v-10Z"/><ellipse class="cls-2" cx="69.16" cy="78.09" rx="26.42" ry="6.33"/><path class="cls-3" d="M69.8,94.79c14.3-.08,25.78-2.88,25.78-6.33v-10H69.8Z"/><path class="cls-4" d="M69.8,71.76V84.42c14.3-.09,25.78-2.89,25.78-6.33S84.1,71.85,69.8,71.76Z"/><path class="cls-1" d="M42.74,66.4v10c0,3.49,11.83,6.33,26.42,6.33s26.42-2.84,26.42-6.33v-10Z"/><ellipse class="cls-2" cx="69.16" cy="66.04" rx="26.42" ry="6.33"/><path class="cls-3" d="M69.8,82.73c14.3-.08,25.78-2.88,25.78-6.32v-10H69.8Z"/><path class="cls-4" d="M69.8,59.71V72.36c14.3-.08,25.78-2.88,25.78-6.32S84.1,59.79,69.8,59.71Z"/><path class="cls-1" d="M42.74,53.91v10c0,3.5,11.83,6.33,26.42,6.33s26.42-2.83,26.42-6.33v-10Z"/><ellipse class="cls-2" cx="69.16" cy="53.55" rx="26.42" ry="6.33"/><path class="cls-3" d="M69.8,70.25c14.3-.09,25.78-2.88,25.78-6.33v-10H69.8Z"/><path class="cls-4" d="M69.8,47.22V59.87c14.3-.08,25.78-2.88,25.78-6.32S84.1,47.31,69.8,47.22Z"/><path class="cls-1" d="M39.45,41.86v10c0,3.49,11.83,6.33,26.42,6.33s26.42-2.84,26.42-6.33v-10Z"/><ellipse class="cls-5" cx="65.87" cy="41.5" rx="26.42" ry="6.33"/><path class="cls-3" d="M66.52,58.19c14.29-.08,25.77-2.88,25.77-6.32v-10H66.52Z"/><path class="cls-4" d="M66.52,35.17V47.82c14.29-.08,25.77-2.88,25.77-6.32S80.81,35.25,66.52,35.17Z"/><path class="cls-1" d="M42.74,30V40c0,3.5,11.83,6.33,26.42,6.33S95.58,43.48,95.58,40V30Z"/><ellipse class="cls-6" cx="69.16" cy="29.61" rx="26.42" ry="6.33"/><path class="cls-3" d="M69.8,46.31c14.3-.08,25.78-2.88,25.78-6.33V30H69.8Z"/><path class="cls-4" d="M69.8,23.28V35.94c14.3-.09,25.78-2.89,25.78-6.33S84.1,23.37,69.8,23.28Z"/><path class="cls-3" d="M71.16,88.38v10c0,3.5,11.83,6.33,26.42,6.33S124,101.89,124,98.39v-10Z"/><ellipse class="cls-7" cx="97.58" cy="88.02" rx="26.42" ry="6.33"/><path class="cls-8" d="M98.23,104.72c14.29-.09,25.77-2.89,25.77-6.33v-10H98.23Z"/><path class="cls-1" d="M98.23,81.69V94.34C112.52,94.26,124,91.46,124,88S112.52,81.77,98.23,81.69Z"/><path class="cls-9" d="M72.88,69.14a.73.73,0,0,1-.73-.73v-6.2a.73.73,0,1,1,1.46,0v6.2A.73.73,0,0,1,72.88,69.14Z"/><path class="cls-9" d="M76.84,69.14a.73.73,0,0,1-.73-.73v-6.2a.73.73,0,1,1,1.46,0v6.2A.73.73,0,0,1,76.84,69.14Z"/><path class="cls-9" d="M80.8,68.77a.73.73,0,0,1-.73-.73v-6.2a.73.73,0,1,1,1.46,0V68A.73.73,0,0,1,80.8,68.77Z"/><path class="cls-9" d="M84.76,68a.73.73,0,0,1-.73-.73v-6.2a.73.73,0,1,1,1.46,0v6.2A.73.73,0,0,1,84.76,68Z"/><path class="cls-9" d="M88.49,67.26a.73.73,0,0,1-.73-.73v-6.2a.73.73,0,0,1,1.46,0v6.2A.73.73,0,0,1,88.49,67.26Z"/><path class="cls-9" d="M92.45,66.16a.73.73,0,0,1-.73-.73v-6.2a.73.73,0,0,1,1.46,0v6.2A.72.72,0,0,1,92.45,66.16Z"/><path class="cls-10" d="M65.21,69.14a.73.73,0,0,1-.73-.73v-6.2a.73.73,0,1,1,1.46,0v6.2A.73.73,0,0,1,65.21,69.14Z"/><path class="cls-10" d="M61.25,68.77a.73.73,0,0,1-.73-.73v-6.2a.73.73,0,0,1,1.46,0V68A.73.73,0,0,1,61.25,68.77Z"/><path class="cls-10" d="M57.29,68.41a.74.74,0,0,1-.73-.74v-6.2a.73.73,0,1,1,1.46,0v6.2A.74.74,0,0,1,57.29,68.41Z"/><path class="cls-10" d="M53.33,67.67a.73.73,0,0,1-.73-.73v-6.2a.73.73,0,1,1,1.46,0v6.2A.72.72,0,0,1,53.33,67.67Z"/><path class="cls-10" d="M49.59,66.89a.73.73,0,0,1-.73-.73V60a.73.73,0,0,1,1.46,0v6.2A.72.72,0,0,1,49.59,66.89Z"/><path class="cls-10" d="M45.63,65.8a.73.73,0,0,1-.73-.73v-6.2a.74.74,0,0,1,1.47,0v6.2A.74.74,0,0,1,45.63,65.8Z"/><path class="cls-9" d="M72.88,80.61a.73.73,0,0,1-.73-.73v-6.2a.73.73,0,1,1,1.46,0v6.2A.73.73,0,0,1,72.88,80.61Z"/><path class="cls-9" d="M76.84,80.61a.73.73,0,0,1-.73-.73v-6.2a.73.73,0,0,1,1.46,0v6.2A.73.73,0,0,1,76.84,80.61Z"/><path class="cls-9" d="M80.8,80.24a.72.72,0,0,1-.73-.73v-6.2a.73.73,0,1,1,1.46,0v6.2A.73.73,0,0,1,80.8,80.24Z"/><path class="cls-9" d="M84.76,79.51a.72.72,0,0,1-.73-.73v-6.2a.73.73,0,0,1,1.46,0v6.2A.73.73,0,0,1,84.76,79.51Z"/><path class="cls-9" d="M88.49,78.73a.73.73,0,0,1-.73-.73V71.8a.73.73,0,1,1,1.46,0V78A.73.73,0,0,1,88.49,78.73Z"/><path class="cls-9" d="M92.45,77.64a.73.73,0,0,1-.73-.73v-6.2a.73.73,0,1,1,1.46,0v6.2A.73.73,0,0,1,92.45,77.64Z"/><path class="cls-10" d="M65.21,81.7a.73.73,0,0,1-.73-.73v-6.2a.73.73,0,1,1,1.46,0V81A.73.73,0,0,1,65.21,81.7Z"/><path class="cls-10" d="M61.25,81.34a.73.73,0,0,1-.73-.73v-6.2a.73.73,0,0,1,1.46,0v6.2A.73.73,0,0,1,61.25,81.34Z"/><path class="cls-10" d="M57.29,81a.73.73,0,0,1-.73-.73V74A.73.73,0,1,1,58,74v6.2A.73.73,0,0,1,57.29,81Z"/><path class="cls-10" d="M53.33,80.24a.73.73,0,0,1-.73-.73v-6.2a.73.73,0,1,1,1.46,0v6.2A.72.72,0,0,1,53.33,80.24Z"/><path class="cls-10" d="M49.59,79.46a.73.73,0,0,1-.73-.73v-6.2a.73.73,0,0,1,1.46,0v6.2A.72.72,0,0,1,49.59,79.46Z"/><path class="cls-10" d="M45.63,78.37a.73.73,0,0,1-.73-.73v-6.2a.74.74,0,0,1,1.47,0v6.2A.74.74,0,0,1,45.63,78.37Z"/><path class="cls-10" d="M65.21,93.39a.73.73,0,0,1-.73-.73v-6.2a.73.73,0,1,1,1.46,0v6.2A.73.73,0,0,1,65.21,93.39Z"/><path class="cls-10" d="M61.25,93a.73.73,0,0,1-.73-.73V86.1a.73.73,0,0,1,1.46,0v6.2A.73.73,0,0,1,61.25,93Z"/><path class="cls-10" d="M57.29,92.66a.73.73,0,0,1-.73-.73v-6.2a.73.73,0,1,1,1.46,0v6.2A.73.73,0,0,1,57.29,92.66Z"/><path class="cls-10" d="M53.33,91.93a.73.73,0,0,1-.73-.73V85a.73.73,0,0,1,1.46,0v6.2A.73.73,0,0,1,53.33,91.93Z"/><path class="cls-10" d="M49.59,91.15a.73.73,0,0,1-.73-.73v-6.2a.73.73,0,1,1,1.46,0v6.2A.73.73,0,0,1,49.59,91.15Z"/><path class="cls-10" d="M45.63,90.05a.73.73,0,0,1-.73-.73v-6.2a.74.74,0,0,1,1.47,0v6.2A.73.73,0,0,1,45.63,90.05Z"/><path class="cls-3" d="M66.28,73.91v10c0,3.5,11.83,6.33,26.42,6.33s26.42-2.83,26.42-6.33v-10Z"/><ellipse class="cls-7" cx="92.7" cy="73.55" rx="26.42" ry="6.33"/><path class="cls-8" d="M93.35,90.25c14.29-.09,25.77-2.88,25.77-6.33v-10H93.35Z"/><path class="cls-1" d="M93.35,67.22V79.87c14.29-.08,25.77-2.88,25.77-6.32S107.64,67.31,93.35,67.22Z"/><path class="cls-4" d="M113.67,77.4l-43.86-7c-2.24.93-3.53,2-3.53,3.16,0,3.49,11.83,6.33,26.42,6.33C101.25,79.88,108.84,78.91,113.67,77.4Z"/><path class="cls-9" d="M72.88,45.07a.73.73,0,0,1-.73-.73v-6.2a.73.73,0,1,1,1.46,0v6.2A.73.73,0,0,1,72.88,45.07Z"/><path class="cls-9" d="M76.84,45.07a.73.73,0,0,1-.73-.73v-6.2a.73.73,0,1,1,1.46,0v6.2A.73.73,0,0,1,76.84,45.07Z"/><path class="cls-9" d="M80.8,44.71a.73.73,0,0,1-.73-.73v-6.2a.73.73,0,1,1,1.46,0V44A.73.73,0,0,1,80.8,44.71Z"/><path class="cls-9" d="M84.76,44a.73.73,0,0,1-.73-.73v-6.2a.73.73,0,0,1,1.46,0v6.2A.73.73,0,0,1,84.76,44Z"/><path class="cls-9" d="M88.49,43.2a.73.73,0,0,1-.73-.73v-6.2a.73.73,0,1,1,1.46,0v6.2A.73.73,0,0,1,88.49,43.2Z"/><path class="cls-9" d="M92.45,42.1a.73.73,0,0,1-.73-.73v-6.2a.73.73,0,0,1,1.46,0v6.2A.73.73,0,0,1,92.45,42.1Z"/><path class="cls-10" d="M65.21,45.07a.73.73,0,0,1-.73-.73v-6.2a.73.73,0,0,1,1.46,0v6.2A.73.73,0,0,1,65.21,45.07Z"/><path class="cls-10" d="M61.25,44.71a.73.73,0,0,1-.73-.73v-6.2a.73.73,0,0,1,1.46,0V44A.73.73,0,0,1,61.25,44.71Z"/><path class="cls-10" d="M57.29,44.34a.73.73,0,0,1-.73-.73v-6.2a.73.73,0,1,1,1.46,0v6.2A.73.73,0,0,1,57.29,44.34Z"/><path class="cls-10" d="M53.33,43.61a.73.73,0,0,1-.73-.73v-6.2a.73.73,0,1,1,1.46,0v6.2A.73.73,0,0,1,53.33,43.61Z"/><path class="cls-10" d="M49.59,42.83a.73.73,0,0,1-.73-.73V35.9a.73.73,0,0,1,1.46,0v6.2A.73.73,0,0,1,49.59,42.83Z"/><path class="cls-10" d="M45.63,41.74A.74.74,0,0,1,44.9,41V34.8a.74.74,0,0,1,1.47,0V41A.74.74,0,0,1,45.63,41.74Z"/><path class="cls-11" d="M97,88.62a.73.73,0,0,1-.73-.73v-6.2a.73.73,0,1,1,1.46,0v6.2A.72.72,0,0,1,97,88.62Z"/><path class="cls-11" d="M100.92,88.62a.73.73,0,0,1-.73-.73v-6.2a.73.73,0,1,1,1.46,0v6.2A.73.73,0,0,1,100.92,88.62Z"/><path class="cls-11" d="M104.88,88.26a.73.73,0,0,1-.73-.73v-6.2a.73.73,0,0,1,1.46,0v6.2A.73.73,0,0,1,104.88,88.26Z"/><path class="cls-11" d="M108.84,87.53a.73.73,0,0,1-.73-.73V80.6a.73.73,0,0,1,1.46,0v6.2A.73.73,0,0,1,108.84,87.53Z"/><path class="cls-11" d="M112.58,86.75a.73.73,0,0,1-.73-.73v-6.2a.73.73,0,1,1,1.46,0V86A.73.73,0,0,1,112.58,86.75Z"/><path class="cls-11" d="M116.54,85.65a.73.73,0,0,1-.73-.73v-6.2a.73.73,0,0,1,1.46,0v6.2A.73.73,0,0,1,116.54,85.65Z"/><path class="cls-7" d="M89.29,88.62a.73.73,0,0,1-.73-.73v-6.2a.73.73,0,0,1,1.46,0v6.2A.72.72,0,0,1,89.29,88.62Z"/><path class="cls-7" d="M85.33,88.26a.73.73,0,0,1-.73-.73v-6.2a.73.73,0,0,1,1.46,0v6.2A.73.73,0,0,1,85.33,88.26Z"/><path class="cls-7" d="M81.37,87.89a.73.73,0,0,1-.73-.73V81a.73.73,0,0,1,1.46,0v6.2A.72.72,0,0,1,81.37,87.89Z"/><path class="cls-7" d="M77.42,87.16a.74.74,0,0,1-.74-.73v-6.2a.74.74,0,0,1,1.47,0v6.2A.73.73,0,0,1,77.42,87.16Z"/><path class="cls-7" d="M73.68,86.38a.73.73,0,0,1-.73-.73v-6.2a.73.73,0,0,1,1.46,0v6.2A.73.73,0,0,1,73.68,86.38Z"/><path class="cls-7" d="M69.72,85.29a.73.73,0,0,1-.73-.73v-6.2a.73.73,0,1,1,1.46,0v6.2A.73.73,0,0,1,69.72,85.29Z"/><path class="cls-11" d="M101.57,103.4a.72.72,0,0,1-.73-.73v-6.2a.73.73,0,1,1,1.46,0v6.2A.73.73,0,0,1,101.57,103.4Z"/><path class="cls-11" d="M105.52,103.4a.73.73,0,0,1-.73-.73v-6.2a.74.74,0,0,1,1.47,0v6.2A.73.73,0,0,1,105.52,103.4Z"/><path class="cls-11" d="M109.48,103a.73.73,0,0,1-.73-.73v-6.2a.73.73,0,0,1,1.46,0v6.2A.73.73,0,0,1,109.48,103Z"/><path class="cls-11" d="M113.44,102.31a.73.73,0,0,1-.73-.73v-6.2a.73.73,0,1,1,1.46,0v6.2A.73.73,0,0,1,113.44,102.31Z"/><path class="cls-11" d="M117.18,101.53a.73.73,0,0,1-.73-.73V94.6a.73.73,0,0,1,1.46,0v6.2A.73.73,0,0,1,117.18,101.53Z"/><path class="cls-11" d="M121.14,100.43a.73.73,0,0,1-.73-.73V93.5a.73.73,0,1,1,1.46,0v6.2A.73.73,0,0,1,121.14,100.43Z"/><path class="cls-7" d="M93.9,103.4a.72.72,0,0,1-.73-.73v-6.2a.73.73,0,0,1,1.46,0v6.2A.73.73,0,0,1,93.9,103.4Z"/><path class="cls-7" d="M89.94,103a.73.73,0,0,1-.73-.73v-6.2a.73.73,0,0,1,1.46,0v6.2A.73.73,0,0,1,89.94,103Z"/><path class="cls-7" d="M86,102.67a.72.72,0,0,1-.73-.73v-6.2a.73.73,0,0,1,1.46,0v6.2A.73.73,0,0,1,86,102.67Z"/><path class="cls-7" d="M82,101.94a.73.73,0,0,1-.73-.73V95a.73.73,0,1,1,1.46,0v6.2A.73.73,0,0,1,82,101.94Z"/><path class="cls-7" d="M78.28,101.16a.73.73,0,0,1-.73-.73v-6.2a.73.73,0,0,1,1.46,0v6.2A.73.73,0,0,1,78.28,101.16Z"/><path class="cls-7" d="M74.32,100.07a.73.73,0,0,1-.73-.73v-6.2a.73.73,0,0,1,1.46,0v6.2A.73.73,0,0,1,74.32,100.07Z"/><path class="cls-9" d="M69.59,56.54a.73.73,0,0,1-.73-.73v-6.2a.73.73,0,0,1,1.46,0v6.2A.72.72,0,0,1,69.59,56.54Z"/><path class="cls-9" d="M73.55,56.54a.73.73,0,0,1-.73-.73v-6.2a.73.73,0,1,1,1.46,0v6.2A.73.73,0,0,1,73.55,56.54Z"/><path class="cls-9" d="M77.51,56.18a.73.73,0,0,1-.73-.73v-6.2a.73.73,0,0,1,1.46,0v6.2A.73.73,0,0,1,77.51,56.18Z"/><path class="cls-9" d="M81.47,55.45a.73.73,0,0,1-.73-.73v-6.2a.73.73,0,0,1,1.46,0v6.2A.73.73,0,0,1,81.47,55.45Z"/><path class="cls-9" d="M85.21,54.67a.73.73,0,0,1-.73-.73v-6.2a.73.73,0,1,1,1.46,0v6.2A.73.73,0,0,1,85.21,54.67Z"/><path class="cls-9" d="M89.17,53.57a.72.72,0,0,1-.73-.73v-6.2a.73.73,0,0,1,1.46,0v6.2A.73.73,0,0,1,89.17,53.57Z"/><path class="cls-10" d="M61.92,56.54a.73.73,0,0,1-.73-.73v-6.2a.73.73,0,0,1,1.46,0v6.2A.73.73,0,0,1,61.92,56.54Z"/><path class="cls-10" d="M58,56.18a.73.73,0,0,1-.73-.73v-6.2a.73.73,0,0,1,1.46,0v6.2A.73.73,0,0,1,58,56.18Z"/><path class="cls-10" d="M54,55.81a.73.73,0,0,1-.73-.73v-6.2a.73.73,0,0,1,1.46,0v6.2A.72.72,0,0,1,54,55.81Z"/><path class="cls-10" d="M50,55.08a.73.73,0,0,1-.73-.73v-6.2a.73.73,0,1,1,1.46,0v6.2A.72.72,0,0,1,50,55.08Z"/><path class="cls-10" d="M46.31,54.3a.72.72,0,0,1-.73-.73v-6.2a.73.73,0,1,1,1.46,0v6.2A.73.73,0,0,1,46.31,54.3Z"/><path class="cls-10" d="M42.35,53.21a.73.73,0,0,1-.73-.73v-6.2a.73.73,0,0,1,1.46,0v6.2A.73.73,0,0,1,42.35,53.21Z"/><circle class="cls-2" cx="30.65" cy="74.04" r="26.65"/><circle class="cls-7" cx="30.65" cy="74.04" r="24.3"/><circle class="cls-2" cx="30.65" cy="74.04" r="26.65"/><circle class="cls-7" cx="30.65" cy="74.04" r="24.3"/><circle class="cls-2" cx="30.65" cy="74.04" r="26.65"/><circle class="cls-7" cx="30.65" cy="74.04" r="24.3"/><circle class="cls-2" cx="30.65" cy="74.04" r="26.65"/><circle class="cls-7" cx="30.65" cy="74.04" r="24.3"/><circle class="cls-2" cx="30.65" cy="74.04" r="26.65"/><circle class="cls-7" cx="30.65" cy="74.04" r="24.3"/><circle class="cls-2" cx="30.65" cy="74.04" r="26.65"/><circle class="cls-7" cx="30.65" cy="74.04" r="24.3"/><circle class="cls-2" cx="30.65" cy="74.04" r="26.65"/><circle class="cls-7" cx="30.65" cy="74.04" r="24.3"/><circle class="cls-2" cx="30.65" cy="74.04" r="26.65"/><circle class="cls-7" cx="30.65" cy="74.04" r="24.3"/><circle class="cls-2" cx="30.65" cy="74.04" r="26.65"/><circle class="cls-7" cx="30.65" cy="74.04" r="24.3"/><circle class="cls-2" cx="30.65" cy="74.04" r="26.65"/><circle class="cls-7" cx="30.65" cy="74.04" r="24.3"/><circle class="cls-2" cx="30.65" cy="74.04" r="26.65"/><circle class="cls-7" cx="30.65" cy="74.04" r="24.3"/><path class="cls-12" d="M57.29,74A26.64,26.64,0,0,0,30.65,47.4v53.29A26.65,26.65,0,0,0,57.29,74Z"/><path class="cls-3" d="M54.94,74a24.29,24.29,0,0,0-24.29-24.3v48.6A24.29,24.29,0,0,0,54.94,74Z"/><path class="cls-13" d="M41.69,76.27a7.07,7.07,0,0,0-1.94-2.4,12.38,12.38,0,0,0-3-1.71A21.49,21.49,0,0,0,34,71.28l.13-5.4a10.91,10.91,0,0,1,1.85.55,10.14,10.14,0,0,1,3.5,2.38l2.81-4.6a13.07,13.07,0,0,0-4.68-3.16,15,15,0,0,0-3.34-.84l.07-3h-4l.07,2.87a11.65,11.65,0,0,0-2.61.54,10.6,10.6,0,0,0-3.29,1.71A8.56,8.56,0,0,0,22.25,65a7,7,0,0,0-.83,3.37,7.33,7.33,0,0,0,3.91,6.82,16.94,16.94,0,0,0,4.38,1.64l-.13,5.63a11.12,11.12,0,0,1-1.89-.65,14.26,14.26,0,0,1-4.25-3.2l-3.11,5.07a13,13,0,0,0,4.77,3.45,15.26,15.26,0,0,0,4.34,1.07l-.08,3.27h4l-.08-3.23a12.74,12.74,0,0,0,3.92-1,8.6,8.6,0,0,0,3.77-3,8.09,8.09,0,0,0,1.39-4.81A7.09,7.09,0,0,0,41.69,76.27ZM28.51,69.16A1.71,1.71,0,0,1,28.12,68a1.84,1.84,0,0,1,.46-1.27,3.17,3.17,0,0,1,1.31-.82,6.56,6.56,0,0,1,.67-.17l.13,4.72A7.38,7.38,0,0,1,29.56,70,3.8,3.8,0,0,1,28.51,69.16Zm6.74,12.52a2.91,2.91,0,0,1-1.33.8,4.56,4.56,0,0,1-.77.18L33,77.72l.39.14a6.4,6.4,0,0,1,1.2.65,2.6,2.6,0,0,1,.8.82,2,2,0,0,1-.17,2.35Z"/><path class="cls-14" d="M39.75,73.87a12.38,12.38,0,0,0-3-1.71A21.49,21.49,0,0,0,34,71.28l.13-5.4a10.91,10.91,0,0,1,1.85.55,10.14,10.14,0,0,1,3.5,2.38l2.81-4.6a13.07,13.07,0,0,0-4.68-3.16,15,15,0,0,0-3.34-.84l.07-3H30.69V91.48h2.69l-.08-3.23a12.74,12.74,0,0,0,3.92-1,8.6,8.6,0,0,0,3.77-3,8.09,8.09,0,0,0,1.39-4.81,6.87,6.87,0,0,0-2.63-5.61Zm-4.5,7.81a2.91,2.91,0,0,1-1.33.8,4.56,4.56,0,0,1-.77.18L33,77.72l.39.14a6.4,6.4,0,0,1,1.2.65,2.6,2.6,0,0,1,.8.82,2,2,0,0,1-.17,2.35Z"/></svg>