<svg id="Layer_2" data-name="Layer 2" xmlns="http://www.w3.org/2000/svg" viewBox="0 0 128 128"><defs><style>.cls-1{fill:#d44325;}.cls-2{fill:#ff5c35;}.cls-3{fill:#fff;}</style></defs><circle class="cls-1" cx="64" cy="64" r="60"/><path class="cls-2" d="M64.08,4H64a60,60,0,0,0,0,120h.08Z"/><path class="cls-3" d="M76.26,52.37V44.09a6.39,6.39,0,0,0,3.68-5.75v-.19a6.4,6.4,0,0,0-6.37-6.38h-.19A6.39,6.39,0,0,0,67,38.15v.19a6.37,6.37,0,0,0,3.67,5.75v8.28a18.15,18.15,0,0,0-8.59,3.78L39.34,38.46a7.25,7.25,0,1,0-3.4,4.42L58.32,60.29a18.1,18.1,0,0,0,.28,20.43l-6.81,6.81a5.8,5.8,0,0,0-1.68-.28,6,6,0,1,0,5.63,4.22l6.73-6.73A18.15,18.15,0,1,0,76.26,52.37ZM73.47,79.62a9.32,9.32,0,1,1,9.32-9.31A9.31,9.31,0,0,1,73.47,79.62Z"/></svg>